
<global>
ampeg_release=1.5
</global>

<group>
group_label=RR1
seq_length=2
seq_position=1

<region>
hivel=127
key=A#3
lovel=87
offset=3445
sample=Vibraphone_HardMallets_Staccato_F_A#3_RR1.opus
</region>

<region>
hivel=127
key=A#4
lovel=87
offset=491
sample=Vibraphone_HardMallets_Staccato_F_A#4_RR1.opus
</region>

<region>
hivel=127
key=A#5
lovel=87
offset=4053
sample=Vibraphone_HardMallets_Staccato_F_A#5_RR1.opus
</region>

<region>
hivel=127
key=A3
lovel=87
offset=499
sample=Vibraphone_HardMallets_Staccato_F_A3_RR1.opus
</region>

<region>
hivel=127
key=A4
lovel=87
offset=488
sample=Vibraphone_HardMallets_Staccato_F_A4_RR1.opus
</region>

<region>
hivel=127
key=A5
lovel=87
offset=472
sample=Vibraphone_HardMallets_Staccato_F_A5_RR1.opus
</region>

<region>
hivel=127
key=B3
lovel=87
offset=776
sample=Vibraphone_HardMallets_Staccato_F_B3_RR1.opus
</region>

<region>
hivel=127
key=B4
lovel=87
offset=491
sample=Vibraphone_HardMallets_Staccato_F_B4_RR1.opus
</region>

<region>
hivel=127
key=B5
lovel=87
offset=474
sample=Vibraphone_HardMallets_Staccato_F_B5_RR1.opus
</region>

<region>
hivel=127
key=C#4
lovel=87
offset=498
sample=Vibraphone_HardMallets_Staccato_F_C#4_RR1.opus
</region>

<region>
hivel=127
key=C#5
lovel=87
offset=475
sample=Vibraphone_HardMallets_Staccato_F_C#5_RR1.opus
</region>

<region>
hivel=127
key=C#6
lovel=87
offset=476
sample=Vibraphone_HardMallets_Staccato_F_C#6_RR1.opus
</region>

<region>
hikey=C4
hivel=127
lokey=C4
lovel=87
offset=499
sample=Vibraphone_HardMallets_Staccato_F_C4_RR1.opus
</region>

<region>
hivel=127
key=C5
lovel=87
offset=475
sample=Vibraphone_HardMallets_Staccato_F_C5_RR1.opus
</region>

<region>
hivel=127
key=C6
lovel=87
offset=474
sample=Vibraphone_HardMallets_Staccato_F_C6_RR1.opus
</region>

<region>
hivel=127
key=D#4
lovel=87
offset=489
sample=Vibraphone_HardMallets_Staccato_F_D#4_RR1.opus
</region>

<region>
hivel=127
key=D#5
lovel=87
offset=491
sample=Vibraphone_HardMallets_Staccato_F_D#5_RR1.opus
</region>

<region>
hivel=127
key=D#6
lovel=87
offset=488
sample=Vibraphone_HardMallets_Staccato_F_D#6_RR1.opus
</region>

<region>
hivel=127
key=D4
lovel=87
offset=494
sample=Vibraphone_HardMallets_Staccato_F_D4_RR1.opus
</region>

<region>
hivel=127
key=D5
lovel=87
offset=486
sample=Vibraphone_HardMallets_Staccato_F_D5_RR1.opus
</region>

<region>
hivel=127
key=D6
lovel=87
offset=472
sample=Vibraphone_HardMallets_Staccato_F_D6_RR1.opus
</region>

<region>
hivel=127
key=E4
lovel=87
offset=489
sample=Vibraphone_HardMallets_Staccato_F_E4_RR1.opus
</region>

<region>
hivel=127
key=E5
lovel=87
offset=487
sample=Vibraphone_HardMallets_Staccato_F_E5_RR1.opus
</region>

<region>
hivel=127
key=E6
lovel=87
offset=474
sample=Vibraphone_HardMallets_Staccato_F_E6_RR1.opus
</region>

<region>
hivel=127
key=F#3
lovel=87
offset=488
sample=Vibraphone_HardMallets_Staccato_F_F#3_RR1.opus
</region>

<region>
hivel=127
key=F#4
lovel=87
offset=490
sample=Vibraphone_HardMallets_Staccato_F_F#4_RR1.opus
</region>

<region>
hivel=127
key=F#5
lovel=87
offset=472
sample=Vibraphone_HardMallets_Staccato_F_F#5_RR1.opus
</region>

<region>
hivel=127
key=F3
lovel=87
offset=487
sample=Vibraphone_HardMallets_Staccato_F_F3_RR1.opus
</region>

<region>
hivel=127
key=F4
lovel=87
offset=504
sample=Vibraphone_HardMallets_Staccato_F_F4_RR1.opus
</region>

<region>
hivel=127
key=F5
lovel=87
offset=488
sample=Vibraphone_HardMallets_Staccato_F_F5_RR1.opus
</region>

<region>
hivel=127
key=F6
lovel=87
offset=472
sample=Vibraphone_HardMallets_Staccato_F_F6_RR1.opus
</region>

<region>
hivel=127
key=G#3
lovel=87
offset=2621
sample=Vibraphone_HardMallets_Staccato_F_G#3_RR1.opus
</region>

<region>
hivel=127
key=G#4
lovel=87
offset=486
sample=Vibraphone_HardMallets_Staccato_F_G#4_RR1.opus
</region>

<region>
hivel=127
key=G#5
lovel=87
offset=474
sample=Vibraphone_HardMallets_Staccato_F_G#5_RR1.opus
</region>

<region>
hivel=127
key=G3
lovel=87
offset=485
sample=Vibraphone_HardMallets_Staccato_F_G3_RR1.opus
</region>

<region>
hivel=127
key=G4
lovel=87
offset=489
sample=Vibraphone_HardMallets_Staccato_F_G4_RR1.opus
</region>

<region>
hivel=127
key=G5
lovel=87
offset=475
sample=Vibraphone_HardMallets_Staccato_F_G5_RR1.opus
</region>

<region>
hivel=86
key=A#3
lovel=25
offset=3343
sample=Vibraphone_HardMallets_Staccato_MF_A#3_RR1.opus
volume=3
</region>

<region>
hivel=86
key=A#4
lovel=25
offset=4362
sample=Vibraphone_HardMallets_Staccato_MF_A#4_RR1.opus
volume=3
</region>

<region>
hivel=86
key=A#5
lovel=25
offset=1412
sample=Vibraphone_HardMallets_Staccato_MF_A#5_RR1.opus
volume=3
</region>

<region>
hivel=86
key=A3
lovel=25
offset=3563
sample=Vibraphone_HardMallets_Staccato_MF_A3_RR1.opus
volume=3
</region>

<region>
hivel=86
key=A4
lovel=25
offset=5486
sample=Vibraphone_HardMallets_Staccato_MF_A4_RR1.opus
volume=3
</region>

<region>
hivel=86
key=A5
lovel=25
offset=1832
sample=Vibraphone_HardMallets_Staccato_MF_A5_RR1.opus
volume=3
</region>

<region>
hivel=86
key=B3
lovel=25
offset=4227
sample=Vibraphone_HardMallets_Staccato_MF_B3_RR1.opus
volume=3
</region>

<region>
hivel=86
key=B4
lovel=25
offset=4580
sample=Vibraphone_HardMallets_Staccato_MF_B4_RR1.opus
volume=3
</region>

<region>
hivel=86
key=B5
lovel=25
offset=7199
sample=Vibraphone_HardMallets_Staccato_MF_B5_RR1.opus
volume=3
</region>

<region>
hivel=86
key=C#4
lovel=25
offset=6146
sample=Vibraphone_HardMallets_Staccato_MF_C#4_RR1.opus
volume=3
</region>

<region>
hivel=86
key=C#5
lovel=25
offset=496
sample=Vibraphone_HardMallets_Staccato_MF_C#5_RR1.opus
volume=3
</region>

<region>
hivel=86
key=C#6
lovel=25
offset=494
sample=Vibraphone_HardMallets_Staccato_MF_C#6_RR1.opus
volume=3
</region>

<region>
hikey=C4
hivel=86
lokey=C4
lovel=25
offset=1284
sample=Vibraphone_HardMallets_Staccato_MF_C4_RR1.opus
volume=3
</region>

<region>
hivel=86
key=C5
lovel=25
offset=3132
sample=Vibraphone_HardMallets_Staccato_MF_C5_RR1.opus
volume=3
</region>

<region>
hivel=86
key=C6
lovel=25
offset=4707
sample=Vibraphone_HardMallets_Staccato_MF_C6_RR1.opus
volume=3
</region>

<region>
hivel=86
key=D#4
lovel=25
offset=4136
sample=Vibraphone_HardMallets_Staccato_MF_D#4_RR1.opus
volume=3
</region>

<region>
hivel=86
key=D#5
lovel=25
offset=7484
sample=Vibraphone_HardMallets_Staccato_MF_D#5_RR1.opus
volume=3
</region>

<region>
hivel=86
key=D#6
lovel=25
offset=2015
sample=Vibraphone_HardMallets_Staccato_MF_D#6_RR1.opus
volume=3
</region>

<region>
hivel=86
key=D4
lovel=25
offset=4067
sample=Vibraphone_HardMallets_Staccato_MF_D4_RR1.opus
volume=3
</region>

<region>
hivel=86
key=D5
lovel=25
offset=3579
sample=Vibraphone_HardMallets_Staccato_MF_D5_RR1.opus
volume=3
</region>

<region>
hivel=86
key=D6
lovel=25
offset=5387
sample=Vibraphone_HardMallets_Staccato_MF_D6_RR1.opus
volume=3
</region>

<region>
hivel=86
key=E4
lovel=25
offset=3650
sample=Vibraphone_HardMallets_Staccato_MF_E4_RR1.opus
volume=3
</region>

<region>
hivel=86
key=E5
lovel=25
offset=502
sample=Vibraphone_HardMallets_Staccato_MF_E5_RR1.opus
volume=3
</region>

<region>
hivel=86
key=E6
lovel=25
offset=6024
sample=Vibraphone_HardMallets_Staccato_MF_E6_RR1.opus
volume=3
</region>

<region>
hivel=86
key=F#3
lovel=25
offset=4173
sample=Vibraphone_HardMallets_Staccato_MF_F#3_RR1.opus
volume=3
</region>

<region>
hivel=86
key=F#4
lovel=25
offset=1170
sample=Vibraphone_HardMallets_Staccato_MF_F#4_RR1.opus
volume=3
</region>

<region>
hivel=86
key=F#5
lovel=25
offset=2225
sample=Vibraphone_HardMallets_Staccato_MF_F#5_RR1.opus
volume=3
</region>

<region>
hivel=86
key=F3
lovel=25
offset=2489
sample=Vibraphone_HardMallets_Staccato_MF_F3_RR1.opus
volume=3
</region>

<region>
hivel=86
key=F4
lovel=25
offset=3095
sample=Vibraphone_HardMallets_Staccato_MF_F4_RR1.opus
volume=3
</region>

<region>
hivel=86
key=F5
lovel=25
offset=491
sample=Vibraphone_HardMallets_Staccato_MF_F5_RR1.opus
volume=3
</region>

<region>
hivel=86
key=F6
lovel=25
offset=5106
sample=Vibraphone_HardMallets_Staccato_MF_F6_RR1.opus
volume=3
</region>

<region>
hivel=86
key=G#3
lovel=25
offset=5454
sample=Vibraphone_HardMallets_Staccato_MF_G#3_RR1.opus
volume=3
</region>

<region>
hivel=86
key=G#4
lovel=25
offset=4854
sample=Vibraphone_HardMallets_Staccato_MF_G#4_RR1.opus
volume=3
</region>

<region>
hivel=86
key=G#5
lovel=25
offset=5840
sample=Vibraphone_HardMallets_Staccato_MF_G#5_RR1.opus
volume=3
</region>

<region>
hivel=86
key=G3
lovel=25
offset=4137
sample=Vibraphone_HardMallets_Staccato_MF_G3_RR1.opus
volume=3
</region>

<region>
hivel=86
key=G4
lovel=25
offset=1368
sample=Vibraphone_HardMallets_Staccato_MF_G4_RR1.opus
volume=3
</region>

<region>
hivel=86
key=G5
lovel=25
offset=1366
sample=Vibraphone_HardMallets_Staccato_MF_G5_RR1.opus
volume=3
</region>

<region>
hivel=24
key=A#3
lovel=0
offset=5644
sample=Vibraphone_HardMallets_Staccato_P_A#3_RR1.opus
volume=20
</region>

<region>
end=63498
hivel=24
key=A#4
lovel=0
offset=5642
sample=Vibraphone_HardMallets_Staccato_P_A#4_RR1.opus
volume=20
</region>

<region>
end=66763
hivel=24
key=A#5
lovel=0
offset=3787
sample=Vibraphone_HardMallets_Staccato_P_A#5_RR1.opus
volume=20
</region>

<region>
hivel=24
key=A3
lovel=0
offset=474
sample=Vibraphone_HardMallets_Staccato_P_A3_RR1.opus
volume=20
</region>

<region>
hivel=24
key=A4
lovel=0
offset=6316
sample=Vibraphone_HardMallets_Staccato_P_A4_RR1.opus
volume=20
</region>

<region>
end=66771
hivel=24
key=A5
lovel=0
offset=3283
sample=Vibraphone_HardMallets_Staccato_P_A5_RR1.opus
volume=20
</region>

<region>
hivel=24
key=B3
lovel=0
offset=11276
sample=Vibraphone_HardMallets_Staccato_P_B3_RR1.opus
volume=20
</region>

<region>
hivel=24
key=B4
lovel=0
offset=5150
sample=Vibraphone_HardMallets_Staccato_P_B4_RR1.opus
volume=20
</region>

<region>
hivel=24
key=B5
lovel=0
offset=2902
sample=Vibraphone_HardMallets_Staccato_P_B5_RR1.opus
volume=20
</region>

<region>
hivel=24
key=C#4
lovel=0
offset=9534
sample=Vibraphone_HardMallets_Staccato_P_C#4_RR1.opus
volume=20
</region>

<region>
hivel=24
key=C#5
lovel=0
offset=5017
sample=Vibraphone_HardMallets_Staccato_P_C#5_RR1.opus
volume=20
</region>

<region>
hivel=24
key=C#6
lovel=0
offset=3870
sample=Vibraphone_HardMallets_Staccato_P_C#6_RR1.opus
volume=20
</region>

<region>
hikey=C4
hivel=24
lokey=C4
lovel=0
offset=6586
sample=Vibraphone_HardMallets_Staccato_P_C4_RR1.opus
volume=20
</region>

<region>
hivel=24
key=C5
lovel=0
offset=6938
sample=Vibraphone_HardMallets_Staccato_P_C5_RR1.opus
volume=20
</region>

<region>
hivel=24
key=C6
lovel=0
offset=3771
sample=Vibraphone_HardMallets_Staccato_P_C6_RR1.opus
volume=20
</region>

<region>
hivel=24
key=D#4
lovel=0
offset=3087
sample=Vibraphone_HardMallets_Staccato_P_D#4_RR1.opus
volume=20
</region>

<region>
hivel=24
key=D#5
lovel=0
offset=5246
sample=Vibraphone_HardMallets_Staccato_P_D#5_RR1.opus
volume=20
</region>

<region>
hivel=24
key=D#6
lovel=0
offset=5821
sample=Vibraphone_HardMallets_Staccato_P_D#6_RR1.opus
volume=20
</region>

<region>
end=91295
hivel=24
key=D4
lovel=0
offset=3743
sample=Vibraphone_HardMallets_Staccato_P_D4_RR1.opus
volume=20
</region>

<region>
hivel=24
key=D5
lovel=0
offset=4732
sample=Vibraphone_HardMallets_Staccato_P_D5_RR1.opus
volume=20
</region>

<region>
end=68397
hivel=24
key=D6
lovel=0
offset=4909
sample=Vibraphone_HardMallets_Staccato_P_D6_RR1.opus
volume=20
</region>

<region>
hivel=24
key=E4
lovel=0
offset=3296
sample=Vibraphone_HardMallets_Staccato_P_E4_RR1.opus
volume=20
</region>

<region>
hivel=24
key=E5
lovel=0
offset=4721
sample=Vibraphone_HardMallets_Staccato_P_E5_RR1.opus
volume=20
</region>

<region>
hivel=24
key=E6
lovel=0
offset=2994
sample=Vibraphone_HardMallets_Staccato_P_E6_RR1.opus
volume=20
</region>

<region>
end=75636
hivel=24
key=F#3
lovel=0
offset=2420
sample=Vibraphone_HardMallets_Staccato_P_F#3_RR1.opus
volume=20
</region>

<region>
hivel=24
key=F#4
lovel=0
offset=4235
sample=Vibraphone_HardMallets_Staccato_P_F#4_RR1.opus
volume=20
</region>

<region>
hivel=24
key=F#5
lovel=0
offset=5185
sample=Vibraphone_HardMallets_Staccato_P_F#5_RR1.opus
volume=20
</region>

<region>
hivel=24
key=F3
lovel=0
offset=6757
sample=Vibraphone_HardMallets_Staccato_P_F3_RR1.opus
volume=20
</region>

<region>
hivel=24
key=F4
lovel=0
offset=4127
sample=Vibraphone_HardMallets_Staccato_P_F4_RR1.opus
volume=20
</region>

<region>
end=71056
hivel=24
key=F5
lovel=0
offset=3472
sample=Vibraphone_HardMallets_Staccato_P_F5_RR1.opus
volume=20
</region>

<region>
end=101369
hivel=24
key=F6
lovel=0
offset=26617
sample=Vibraphone_HardMallets_Staccato_P_F6_RR1.opus
volume=20
</region>

<region>
hivel=24
key=G#3
lovel=0
offset=3736
sample=Vibraphone_HardMallets_Staccato_P_G#3_RR1.opus
volume=20
</region>

<region>
hivel=24
key=G#4
lovel=0
offset=4979
sample=Vibraphone_HardMallets_Staccato_P_G#4_RR1.opus
volume=20
</region>

<region>
hivel=24
key=G#5
lovel=0
offset=5450
sample=Vibraphone_HardMallets_Staccato_P_G#5_RR1.opus
volume=20
</region>

<region>
hivel=24
key=G3
lovel=0
offset=5814
sample=Vibraphone_HardMallets_Staccato_P_G3_RR1.opus
volume=20
</region>

<region>
hivel=24
key=G4
lovel=0
offset=6095
sample=Vibraphone_HardMallets_Staccato_P_G4_RR1.opus
volume=20
</region>

<region>
hivel=24
key=G5
lovel=0
offset=3736
sample=Vibraphone_HardMallets_Staccato_P_G5_RR1.opus
volume=20
</region>
</group>

<group>
group_label=RR2
seq_length=2
seq_position=2

<region>
hivel=127
key=A#3
lovel=87
offset=3108
sample=Vibraphone_HardMallets_Staccato_F_A#3_RR2.opus
</region>

<region>
hivel=127
key=A#4
lovel=87
offset=498
sample=Vibraphone_HardMallets_Staccato_F_A#4_RR2.opus
</region>

<region>
hivel=127
key=A#5
lovel=87
offset=472
sample=Vibraphone_HardMallets_Staccato_F_A#5_RR2.opus
</region>

<region>
hivel=127
key=A3
lovel=87
offset=491
sample=Vibraphone_HardMallets_Staccato_F_A3_RR2.opus
</region>

<region>
hivel=127
key=A4
lovel=87
offset=489
sample=Vibraphone_HardMallets_Staccato_F_A4_RR2.opus
</region>

<region>
hivel=127
key=A5
lovel=87
offset=474
sample=Vibraphone_HardMallets_Staccato_F_A5_RR2.opus
</region>

<region>
hivel=127
key=B3
lovel=87
offset=491
sample=Vibraphone_HardMallets_Staccato_F_B3_RR2.opus
</region>

<region>
hivel=127
key=B4
lovel=87
offset=490
sample=Vibraphone_HardMallets_Staccato_F_B4_RR2.opus
</region>

<region>
hivel=127
key=B5
lovel=87
offset=473
sample=Vibraphone_HardMallets_Staccato_F_B5_RR2.opus
</region>

<region>
hivel=127
key=C#4
lovel=87
offset=473
sample=Vibraphone_HardMallets_Staccato_F_C#4_RR2.opus
</region>

<region>
hivel=127
key=C#5
lovel=87
offset=487
sample=Vibraphone_HardMallets_Staccato_F_C#5_RR2.opus
</region>

<region>
hivel=127
key=C#6
lovel=87
offset=474
sample=Vibraphone_HardMallets_Staccato_F_C#6_RR2.opus
</region>

<region>
hikey=C4
hivel=127
lokey=C4
lovel=87
offset=491
sample=Vibraphone_HardMallets_Staccato_F_C4_RR2.opus
</region>

<region>
hivel=127
key=C5
lovel=87
offset=489
sample=Vibraphone_HardMallets_Staccato_F_C5_RR2.opus
</region>

<region>
hivel=127
key=C6
lovel=87
offset=473
sample=Vibraphone_HardMallets_Staccato_F_C6_RR2.opus
</region>

<region>
hivel=127
key=D#4
lovel=87
offset=489
sample=Vibraphone_HardMallets_Staccato_F_D#4_RR2.opus
</region>

<region>
hivel=127
key=D#5
lovel=87
offset=495
sample=Vibraphone_HardMallets_Staccato_F_D#5_RR2.opus
</region>

<region>
hivel=127
key=D#6
lovel=87
offset=472
sample=Vibraphone_HardMallets_Staccato_F_D#6_RR2.opus
</region>

<region>
hivel=127
key=D4
lovel=87
offset=493
sample=Vibraphone_HardMallets_Staccato_F_D4_RR2.opus
</region>

<region>
hivel=127
key=D5
lovel=87
offset=491
sample=Vibraphone_HardMallets_Staccato_F_D5_RR2.opus
</region>

<region>
hivel=127
key=D6
lovel=87
offset=472
sample=Vibraphone_HardMallets_Staccato_F_D6_RR2.opus
</region>

<region>
hivel=127
key=E4
lovel=87
offset=481
sample=Vibraphone_HardMallets_Staccato_F_E4_RR2.opus
</region>

<region>
hivel=127
key=E5
lovel=87
offset=488
sample=Vibraphone_HardMallets_Staccato_F_E5_RR2.opus
</region>

<region>
hivel=127
key=E6
lovel=87
offset=473
sample=Vibraphone_HardMallets_Staccato_F_E6_RR2.opus
</region>

<region>
hivel=127
key=F#3
lovel=87
offset=486
sample=Vibraphone_HardMallets_Staccato_F_F#3_RR2.opus
</region>

<region>
hivel=127
key=F#4
lovel=87
offset=489
sample=Vibraphone_HardMallets_Staccato_F_F#4_RR2.opus
</region>

<region>
hivel=127
key=F#5
lovel=87
offset=472
sample=Vibraphone_HardMallets_Staccato_F_F#5_RR2.opus
</region>

<region>
hivel=127
key=F3
lovel=87
offset=485
sample=Vibraphone_HardMallets_Staccato_F_F3_RR2.opus
</region>

<region>
hivel=127
key=F4
lovel=87
offset=500
sample=Vibraphone_HardMallets_Staccato_F_F4_RR2.opus
</region>

<region>
hivel=127
key=F5
lovel=87
offset=490
sample=Vibraphone_HardMallets_Staccato_F_F5_RR2.opus
</region>

<region>
hivel=127
key=F6
lovel=87
offset=472
sample=Vibraphone_HardMallets_Staccato_F_F6_RR2.opus
</region>

<region>
hivel=127
key=G#3
lovel=87
offset=2778
sample=Vibraphone_HardMallets_Staccato_F_G#3_RR2.opus
</region>

<region>
hivel=127
key=G#4
lovel=87
offset=492
sample=Vibraphone_HardMallets_Staccato_F_G#4_RR2.opus
</region>

<region>
hivel=127
key=G#5
lovel=87
offset=489
sample=Vibraphone_HardMallets_Staccato_F_G#5_RR2.opus
</region>

<region>
hivel=127
key=G3
lovel=87
offset=485
sample=Vibraphone_HardMallets_Staccato_F_G3_RR2.opus
</region>

<region>
hivel=127
key=G4
lovel=87
offset=498
sample=Vibraphone_HardMallets_Staccato_F_G4_RR2.opus
</region>

<region>
hivel=127
key=G5
lovel=87
offset=474
sample=Vibraphone_HardMallets_Staccato_F_G5_RR2.opus
</region>

<region>
hivel=86
key=A#3
lovel=25
offset=4216
sample=Vibraphone_HardMallets_Staccato_MF_A#3_RR2.opus
volume=3
</region>

<region>
hivel=86
key=A#4
lovel=25
offset=2742
sample=Vibraphone_HardMallets_Staccato_MF_A#4_RR2.opus
volume=3
</region>

<region>
hivel=86
key=A#5
lovel=25
offset=496
sample=Vibraphone_HardMallets_Staccato_MF_A#5_RR2.opus
volume=3
</region>

<region>
hivel=86
key=A3
lovel=25
offset=3766
sample=Vibraphone_HardMallets_Staccato_MF_A3_RR2.opus
volume=3
</region>

<region>
hivel=86
key=A4
lovel=25
offset=5530
sample=Vibraphone_HardMallets_Staccato_MF_A4_RR2.opus
volume=3
</region>

<region>
hivel=86
key=A5
lovel=25
offset=4461
sample=Vibraphone_HardMallets_Staccato_MF_A5_RR2.opus
volume=3
</region>

<region>
hivel=86
key=B3
lovel=25
offset=1450
sample=Vibraphone_HardMallets_Staccato_MF_B3_RR2.opus
volume=3
</region>

<region>
hivel=86
key=B4
lovel=25
offset=473
sample=Vibraphone_HardMallets_Staccato_MF_B4_RR2.opus
volume=3
</region>

<region>
hivel=86
key=B5
lovel=25
offset=5954
sample=Vibraphone_HardMallets_Staccato_MF_B5_RR2.opus
volume=3
</region>

<region>
hivel=86
key=C#4
lovel=25
offset=2642
sample=Vibraphone_HardMallets_Staccato_MF_C#4_RR2.opus
volume=3
</region>

<region>
hivel=86
key=C#5
lovel=25
offset=492
sample=Vibraphone_HardMallets_Staccato_MF_C#5_RR2.opus
volume=3
</region>

<region>
hivel=86
key=C#6
lovel=25
offset=5107
sample=Vibraphone_HardMallets_Staccato_MF_C#6_RR2.opus
volume=3
</region>

<region>
hikey=C4
hivel=86
lokey=C4
lovel=25
offset=4089
sample=Vibraphone_HardMallets_Staccato_MF_C4_RR2.opus
volume=3
</region>

<region>
hivel=86
key=C5
lovel=25
offset=3040
sample=Vibraphone_HardMallets_Staccato_MF_C5_RR2.opus
volume=3
</region>

<region>
hivel=86
key=C6
lovel=25
offset=3964
sample=Vibraphone_HardMallets_Staccato_MF_C6_RR2.opus
volume=3
</region>

<region>
hivel=86
key=D#4
lovel=25
offset=5106
sample=Vibraphone_HardMallets_Staccato_MF_D#4_RR2.opus
volume=3
</region>

<region>
hivel=86
key=D#5
lovel=25
offset=869
sample=Vibraphone_HardMallets_Staccato_MF_D#5_RR2.opus
volume=3
</region>

<region>
hivel=86
key=D#6
lovel=25
offset=3420
sample=Vibraphone_HardMallets_Staccato_MF_D#6_RR2.opus
volume=3
</region>

<region>
hivel=86
key=D4
lovel=25
offset=2956
sample=Vibraphone_HardMallets_Staccato_MF_D4_RR2.opus
volume=3
</region>

<region>
hivel=86
key=D5
lovel=25
offset=500
sample=Vibraphone_HardMallets_Staccato_MF_D5_RR2.opus
volume=3
</region>

<region>
hivel=86
key=D6
lovel=25
offset=7553
sample=Vibraphone_HardMallets_Staccato_MF_D6_RR2.opus
volume=3
</region>

<region>
hivel=86
key=E4
lovel=25
offset=1514
sample=Vibraphone_HardMallets_Staccato_MF_E4_RR2.opus
volume=3
</region>

<region>
hivel=86
key=E5
lovel=25
offset=1422
sample=Vibraphone_HardMallets_Staccato_MF_E5_RR2.opus
volume=3
</region>

<region>
hivel=86
key=E6
lovel=25
offset=6103
sample=Vibraphone_HardMallets_Staccato_MF_E6_RR2.opus
volume=3
</region>

<region>
hivel=86
key=F#3
lovel=25
offset=3258
sample=Vibraphone_HardMallets_Staccato_MF_F#3_RR2.opus
volume=3
</region>

<region>
hivel=86
key=F#4
lovel=25
offset=493
sample=Vibraphone_HardMallets_Staccato_MF_F#4_RR2.opus
volume=3
</region>

<region>
hivel=86
key=F#5
lovel=25
sample=Vibraphone_HardMallets_Staccato_MF_F#5_RR2.opus
volume=3
</region>

<region>
hivel=86
key=F3
lovel=25
offset=2357
sample=Vibraphone_HardMallets_Staccato_MF_F3_RR2.opus
volume=3
</region>

<region>
hivel=86
key=F4
lovel=25
offset=2383
sample=Vibraphone_HardMallets_Staccato_MF_F4_RR2.opus
volume=3
</region>

<region>
hivel=86
key=F5
lovel=25
offset=494
sample=Vibraphone_HardMallets_Staccato_MF_F5_RR2.opus
volume=3
</region>

<region>
hivel=86
key=F6
lovel=25
offset=3655
sample=Vibraphone_HardMallets_Staccato_MF_F6_RR2.opus
volume=3
</region>

<region>
hivel=86
key=G#3
lovel=25
offset=2732
sample=Vibraphone_HardMallets_Staccato_MF_G#3_RR2.opus
volume=3
</region>

<region>
hivel=86
key=G#4
lovel=25
offset=1626
sample=Vibraphone_HardMallets_Staccato_MF_G#4_RR2.opus
volume=3
</region>

<region>
hivel=86
key=G#5
lovel=25
offset=496
sample=Vibraphone_HardMallets_Staccato_MF_G#5_RR2.opus
volume=3
</region>

<region>
hivel=86
key=G3
lovel=25
offset=5294
sample=Vibraphone_HardMallets_Staccato_MF_G3_RR2.opus
volume=3
</region>

<region>
hivel=86
key=G4
lovel=25
offset=2965
sample=Vibraphone_HardMallets_Staccato_MF_G4_RR2.opus
volume=3
</region>

<region>
hivel=86
key=G5
lovel=25
offset=1387
sample=Vibraphone_HardMallets_Staccato_MF_G5_RR2.opus
volume=3
</region>

<region>
hivel=24
key=A#3
lovel=0
offset=5643
sample=Vibraphone_HardMallets_Staccato_P_A#3_RR2.opus
volume=20
</region>

<region>
hivel=24
key=A#4
lovel=0
offset=5641
sample=Vibraphone_HardMallets_Staccato_P_A#4_RR2.opus
volume=20
</region>

<region>
hivel=24
key=A#5
lovel=0
offset=2248
sample=Vibraphone_HardMallets_Staccato_P_A#5_RR2.opus
volume=20
</region>

<region>
end=72299
hivel=24
key=A3
lovel=0
offset=4715
sample=Vibraphone_HardMallets_Staccato_P_A3_RR2.opus
volume=20
</region>

<region>
hivel=24
key=A4
lovel=0
offset=6370
sample=Vibraphone_HardMallets_Staccato_P_A4_RR2.opus
volume=20
</region>

<region>
hivel=24
key=A5
lovel=0
offset=2583
sample=Vibraphone_HardMallets_Staccato_P_A5_RR2.opus
volume=20
</region>

<region>
hivel=24
key=B3
lovel=0
offset=7506
sample=Vibraphone_HardMallets_Staccato_P_B3_RR2.opus
volume=20
</region>

<region>
hivel=24
key=B4
lovel=0
offset=4867
sample=Vibraphone_HardMallets_Staccato_P_B4_RR2.opus
volume=20
</region>

<region>
hivel=24
key=B5
lovel=0
offset=2246
sample=Vibraphone_HardMallets_Staccato_P_B5_RR2.opus
volume=20
</region>

<region>
end=77089
hivel=24
key=C#4
lovel=0
offset=4897
sample=Vibraphone_HardMallets_Staccato_P_C#4_RR2.opus
volume=20
</region>

<region>
hivel=24
key=C#5
lovel=0
offset=5341
sample=Vibraphone_HardMallets_Staccato_P_C#5_RR2.opus
volume=20
</region>

<region>
hivel=24
key=C#6
lovel=0
offset=5848
sample=Vibraphone_HardMallets_Staccato_P_C#6_RR2.opus
volume=20
</region>

<region>
hikey=C4
hivel=24
lokey=C4
lovel=0
offset=4620
sample=Vibraphone_HardMallets_Staccato_P_C4_RR2.opus
volume=20
</region>

<region>
hivel=24
key=C5
lovel=0
offset=6650
sample=Vibraphone_HardMallets_Staccato_P_C5_RR2.opus
volume=20
</region>

<region>
hivel=24
key=C6
lovel=0
offset=2230
sample=Vibraphone_HardMallets_Staccato_P_C6_RR2.opus
volume=20
</region>

<region>
end=91496
hivel=24
key=D#4
lovel=0
offset=2920
sample=Vibraphone_HardMallets_Staccato_P_D#4_RR2.opus
volume=20
</region>

<region>
hivel=24
key=D#5
lovel=0
offset=4682
sample=Vibraphone_HardMallets_Staccato_P_D#5_RR2.opus
volume=20
</region>

<region>
hivel=24
key=D#6
lovel=0
offset=4456
sample=Vibraphone_HardMallets_Staccato_P_D#6_RR2.opus
volume=20
</region>

<region>
hivel=24
key=D4
lovel=0
offset=2932
sample=Vibraphone_HardMallets_Staccato_P_D4_RR2.opus
volume=20
</region>

<region>
hivel=24
key=D5
lovel=0
offset=5592
sample=Vibraphone_HardMallets_Staccato_P_D5_RR2.opus
volume=20
</region>

<region>
hivel=24
key=D6
lovel=0
offset=3509
sample=Vibraphone_HardMallets_Staccato_P_D6_RR2.opus
volume=20
</region>

<region>
hivel=24
key=E4
lovel=0
offset=4486
sample=Vibraphone_HardMallets_Staccato_P_E4_RR2.opus
volume=20
</region>

<region>
hivel=24
key=E5
lovel=0
offset=5070
sample=Vibraphone_HardMallets_Staccato_P_E5_RR2.opus
volume=20
</region>

<region>
end=55446
hivel=24
key=E6
lovel=0
offset=4758
sample=Vibraphone_HardMallets_Staccato_P_E6_RR2.opus
volume=20
</region>

<region>
hivel=24
key=F#3
lovel=0
offset=2420
sample=Vibraphone_HardMallets_Staccato_P_F#3_RR2.opus
volume=20
</region>

<region>
end=71969
hivel=24
key=F#4
lovel=0
offset=7969
sample=Vibraphone_HardMallets_Staccato_P_F#4_RR2.opus
volume=20
</region>

<region>
hivel=24
key=F#5
lovel=0
offset=4273
sample=Vibraphone_HardMallets_Staccato_P_F#5_RR2.opus
volume=20
</region>

<region>
hivel=24
key=F3
lovel=0
offset=5356
sample=Vibraphone_HardMallets_Staccato_P_F3_RR2.opus
volume=20
</region>

<region>
end=58613
hivel=24
key=F4
lovel=0
offset=5877
sample=Vibraphone_HardMallets_Staccato_P_F4_RR2.opus
volume=20
</region>

<region>
hivel=24
key=F5
lovel=0
offset=3532
sample=Vibraphone_HardMallets_Staccato_P_F5_RR2.opus
volume=20
</region>

<region>
hivel=24
key=F6
lovel=0
offset=1667
sample=Vibraphone_HardMallets_Staccato_P_F6_RR2.opus
volume=20
</region>

<region>
end=79000
hivel=24
key=G#3
lovel=0
offset=3736
sample=Vibraphone_HardMallets_Staccato_P_G#3_RR2.opus
volume=20
</region>

<region>
hivel=24
key=G#4
lovel=0
offset=6173
sample=Vibraphone_HardMallets_Staccato_P_G#4_RR2.opus
volume=20
</region>

<region>
end=70475
hivel=24
key=G#5
lovel=0
offset=4427
sample=Vibraphone_HardMallets_Staccato_P_G#5_RR2.opus
volume=20
</region>

<region>
hivel=24
key=G3
lovel=0
offset=5812
sample=Vibraphone_HardMallets_Staccato_P_G3_RR2.opus
volume=20
</region>

<region>
hivel=24
key=G4
lovel=0
offset=4147
sample=Vibraphone_HardMallets_Staccato_P_G4_RR2.opus
volume=20
</region>

<region>
hivel=24
key=G5
lovel=0
offset=4185
sample=Vibraphone_HardMallets_Staccato_P_G5_RR2.opus
volume=20
</region>
</group>
